<?xml version="1.0" encoding="utf-8"?>
<!-- Generator: Adobe Illustrator 17.0.0, SVG Export Plug-In . SVG Version: 6.00 Build 0)  -->
<!DOCTYPE svg PUBLIC "-//W3C//DTD SVG 1.1//EN" "http://www.w3.org/Graphics/SVG/1.1/DTD/svg11.dtd">
<svg version="1.1" id="图层_1" xmlns="http://www.w3.org/2000/svg" xmlns:xlink="http://www.w3.org/1999/xlink" x="0px" y="0px"
	 width="770.888px" height="132.934px" viewBox="0 0 770.888 132.934" enable-background="new 0 0 770.888 132.934"
	 xml:space="preserve">
<path fill="#7F8389" d="M8.913,116.096l19.574-38.338h34.918l-28.286,54.178H0 M42.372,29.159L41.454-0.899h34.738l0.676,18.539
	l-0.278,11.52H42.372z M64.466,68.397H29.708L28.79,38.339h34.738l0.676,18.539 M118.546,49.679H75.887l6.042-18.72h8.82L100.741,0
	h105.835l-9.992,30.959h10.979l-10.362,18.72h-40.678l11.038-34.199h-37.979L118.546,49.679z M106.046,76.138
	c4.028,6.479,9.189,12.239,16.562,17.279c12.897-5.94,23.744-12.78,33.494-21.239H71.686l5.519-17.1H195.64l-5.519,17.1
	c-12.108,12.419-26.451,23.398-42.734,32.578c8.546,2.521,18.41,4.86,30.127,6.48l-6.739,20.879
	c-22.516-1.62-40.985-6.3-55.755-12.96c-19.429,6.66-41.041,11.16-65.021,12.96l6.739-20.879c12.699-1.98,24.254-4.32,34.665-7.021
	c-9.085-8.1-15.784-17.459-19.917-28.078H106.046z"/>
<path fill="#7F8389" d="M350.077,47.158l-11.58,11.34h-30.239l-1.917,5.939h68.038l-5.926,18.359h6.299l-4.357,13.5h-6.299
	l-6.042,18.719h-27.899l6.042-18.719h-40.139l-1.743,5.399h39.239l-12.219,13.319h-31.319l-5.693,17.64h-46.798l-4.399-13.14h23.219
	l1.452-4.5h-64.437l4.299-13.319h64.437l1.743-5.399h-70.377l4.357-13.5h70.377l1.743-5.399h-64.437l4.183-12.96h64.437l1.917-5.939
	h-64.437l10.341-32.039h64.437l1.685-5.22h-70.917l4.648-14.399h70.917l2.614-8.1h32.219l-2.614,8.1h75.057l-4.648,14.399h-75.057
	l-1.685,5.22h68.038l-10.341,32.039h-28.979l6.39-19.799h-39.059l-2.73,8.459H350.077z M244.602,47.158H279.7l2.73-8.459h-35.098
	L244.602,47.158z M342.297,77.397h-40.139l-1.743,5.399h40.139L342.297,77.397z"/>
<path fill="#7F8389" d="M394.409,117.716l9.469-29.339l-26.03,6.479l6.565-20.339l26.03-6.479l10.98-34.019h-23.939l5.461-16.92
	h23.939L432.403,0h34.919l-5.519,17.1h19.259L475.6,34.02h-19.259l-7.959,24.658l20.345-5.039l-6.565,20.339l-20.345,5.04
	l-17.486,54.178h-42.118l0.316-15.479H394.409z M571.436,47.158l-8.598,26.64l-23.221,11.159l-0.186,33.479h9.9l-10.106,14.579
	h-32.219l0.017-32.398l-47.04,22.499l8.598-26.639l38.505-18.359l0.013-44.098H480.1l5.461-16.92h21.6l0.171-17.819h32.938
	L540.099,17.1h41.938l-5.461,16.92h-36.539l-0.359,28.438L571.436,47.158z M584.079,0.181l-10.715,13.68h-27.359l4.415-13.68
	H584.079z"/>
<path fill="#7F8389" d="M720.077,47.158l-11.58,11.34h-30.238l-1.917,5.939h68.037l-5.926,18.359h6.3l-4.357,13.5h-6.3
	l-6.042,18.719h-27.899l6.042-18.719h-40.138l-1.743,5.399h39.238l-12.219,13.319h-31.318l-5.693,17.64h-46.799l-4.399-13.14h23.22
	l1.452-4.5h-64.438l4.299-13.319h64.438l1.743-5.399h-70.378l4.357-13.5h70.378l1.743-5.399h-64.438l4.183-12.96h64.438l1.917-5.939
	h-64.438l10.341-32.039h64.438l1.685-5.22h-70.917l4.648-14.399h70.917l2.614-8.1h32.219l-2.614,8.1h75.057l-4.648,14.399h-75.057
	l-1.685,5.22h68.037l-10.341,32.039h-28.979l6.39-19.799h-39.058l-2.73,8.459H720.077z M614.602,47.158H649.7l2.73-8.459h-35.099
	L614.602,47.158z M712.297,77.397h-40.138l-1.743,5.399h40.138L712.297,77.397z"/>
</svg>
